{
	"asset":{
		"version":"2.0",
		"generator":"Created using the official Cinema 4D glTF Exporter 1.000x284978"
	},
	"buffers":[{
		"uri":"data:application/octet-stream;base64,",
		"byteLength":5784
	},
	{
		"uri":"data:application/octet-stream;base64,",
		"byteLength":228972
	},
	{
		"uri":"data:application/octet-stream;base64,",
		"byteLength":494508
	},
	{
		"uri":"data:application/octet-stream;base64,",
		"byteLength":12384
	},
	{
		"uri":"data:application/octet-stream;base64,",
		"byteLength":70680
	}],
	"scenes":[{
		"nodes":[0]
	}],
	"nodes":[{
		"name":"ghost-magician",
		"children":[1]
	},
	{
		"name":"r.p",
		"translation":[-4.347157955169678,
		-37.89992904663086,
		-323.677490234375],
		"rotation":[0.04258543252944946,
		-0.21623361110687257,
		0.00944096315652132,
		0.9753667712211609],
		"scale":[1.0,
		1.0,
		1.0],
		"children":[2,
		3,
		10]
	},
	{
		"name":"wand",
		"translation":[131.1815643310547,
		48.38145446777344,
		50.49506759643555],
		"rotation":[0.1111036092042923,
		-0.026602746918797494,
		-0.3020210266113281,
		0.9464309811592102],
		"scale":[1.0,
		1.0,
		1.0],
		"mesh":0
	},
	{
		"name":"body",
		"translation":[-9.947598300641403e-14,
		-16.5153865814209,
		-23.100078582763673],
		"rotation":[0.0,
		0.0,
		0.0,
		-1.0],
		"scale":[1.0,
		1.0,
		1.0],
		"children":[4,
		8]
	},
	{
		"name":"Subdivision Surface",
		"children":[5,
		6]
	},
	{
		"name":"",
		"translation":[15.846952438354493,
		94.65617370605469,
		0.8934601545333862],
		"rotation":[0.04361938685178757,
		0.0,
		0.0,
		-0.9990482330322266],
		"scale":[1.0,
		1.0,
		1.0],
		"mesh":1
	},
	{
		"name":"Body",
		"children":[7]
	},
	{
		"name":"Body",
		"translation":[15.846952438354493,
		94.65617370605469,
		0.8934601545333862],
		"rotation":[0.04361938685178757,
		0.0,
		0.0,
		-0.9990482330322266],
		"scale":[1.0,
		1.0,
		1.0],
		"mesh":2
	},
	{
		"name":"eye",
		"translation":[1.9184653865522706e-13,
		9.272172927856446,
		-5.2504167556762699],
		"rotation":[0.0,
		0.0,
		0.0,
		-1.0],
		"scale":[1.0,
		1.0,
		1.0],
		"children":[9]
	},
	{
		"name":"Capsule",
		"translation":[26.341711044311525,
		75.27901458740235,
		84.78736877441406],
		"rotation":[0.4969298839569092,
		0.1539180874824524,
		-0.08012468367815018,
		0.8502646684646606],
		"scale":[1.0,
		1.0,
		1.0],
		"mesh":3
	},
	{
		"name":"tongue",
		"translation":[-4.263256414560601e-14,
		22.79954719543457,
		34.79471206665039],
		"rotation":[0.43045932054519656,
		-0.5609855055809021,
		-0.43045932054519656,
		0.5609855055809021],
		"scale":[1.0,
		1.0,
		1.0],
		"children":[11]
	},
	{
		"name":"Capsule.1",
		"translation":[1.4210854715202004e-13,
		28.39811897277832,
		-2.842170943040401e-14],
		"rotation":[0.0,
		0.0,
		0.0,
		-1.0],
		"scale":[1.0,
		1.0,
		1.0],
		"children":[12]
	},
	{
		"name":"Capsule.1",
		"mesh":4
	}],
	"materials":[{
		"emissiveFactor":[0.0,
		0.0,
		0.0],
		"pbrMetallicRoughness":{
			"baseColorFactor":[0.18,
			0.08759999999999996,
			0.04139999999999999,
			1.0],
			"metallicFactor":0.0,
			"roughnessFactor":0.5
		},
		"alphaMode":"OPAQUE",
		"doubleSided":false,
		"name":"wand"
	},
	{
		"emissiveFactor":[0.0,
		0.0,
		0.0],
		"pbrMetallicRoughness":{
			"baseColorFactor":[0.96,
			0.96,
			0.96,
			1.0],
			"metallicFactor":0.0,
			"roughnessFactor":0.5
		},
		"alphaMode":"OPAQUE",
		"doubleSided":false,
		"name":"body"
	},
	{
		"emissiveFactor":[0.0,
		0.0,
		0.0],
		"pbrMetallicRoughness":{
			"baseColorFactor":[0.0,
			0.0,
			0.0,
			1.0],
			"metallicFactor":0.0,
			"roughnessFactor":0.5
		},
		"alphaMode":"OPAQUE",
		"doubleSided":false,
		"name":"eye"
	},
	{
		"emissiveFactor":[0.0,
		0.0,
		0.0],
		"pbrMetallicRoughness":{
			"baseColorFactor":[0.9500000000000001,
			0.48450000000000006,
			0.6474249999999998,
			1.0],
			"metallicFactor":0.0,
			"roughnessFactor":0.5
		},
		"alphaMode":"OPAQUE",
		"doubleSided":false,
		"name":"tongue"
	}],
	"meshes":[{
		"name":"wand",
		"primitives":[{
			"attributes":{
				"POSITION":1
			},
			"indices":0,
			"material":0
		}]
	},
	{
		"name":"",
		"primitives":[{
			"attributes":{
				"POSITION":3
			},
			"indices":2
		}]
	},
	{
		"name":"Body",
		"primitives":[{
			"attributes":{
				"POSITION":5
			},
			"indices":4,
			"material":1
		}]
	},
	{
		"name":"Capsule",
		"primitives":[{
			"attributes":{
				"POSITION":7
			},
			"indices":6,
			"material":2
		}]
	},
	{
		"name":"Capsule.1",
		"primitives":[{
			"attributes":{
				"POSITION":9
			},
			"indices":8,
			"material":3
		}]
	}],
	"accessors":[{
		"count":1440,
		"type":"SCALAR",
		"bufferView":0,
		"componentType":5123,
		"byteOffset":0,
		"min":[0],
		"max":[241]
	},
	{
		"count":242,
		"type":"VEC3",
		"bufferView":1,
		"componentType":5126,
		"byteOffset":0,
		"min":[-3.9807374477386476,
		-46.099998474121097,
		-3.9807374477386476],
		"max":[3.9807374477386476,
		46.099998474121097,
		3.9807374477386476]
	},
	{
		"count":57024,
		"type":"SCALAR",
		"bufferView":2,
		"componentType":5123,
		"byteOffset":0,
		"min":[0],
		"max":[9576]
	},
	{
		"count":9577,
		"type":"VEC3",
		"bufferView":3,
		"componentType":5126,
		"byteOffset":0,
		"min":[-109.5225830078125,
		-15.864961624145508,
		-106.74815368652344],
		"max":[77.81951141357422,
		113.98204040527344,
		78.93714904785156]
	},
	{
		"count":123180,
		"type":"SCALAR",
		"bufferView":4,
		"componentType":5123,
		"byteOffset":0,
		"min":[0],
		"max":[20678]
	},
	{
		"count":20679,
		"type":"VEC3",
		"bufferView":5,
		"componentType":5126,
		"byteOffset":0,
		"min":[-179.76708984375,
		-195.85671997070313,
		-138.99356079101563],
		"max":[149.2838134765625,
		7.619603157043457,
		85.65399169921875]
	},
	{
		"count":2856,
		"type":"SCALAR",
		"bufferView":6,
		"componentType":5123,
		"byteOffset":0,
		"min":[0],
		"max":[555]
	},
	{
		"count":556,
		"type":"VEC3",
		"bufferView":7,
		"componentType":5126,
		"byteOffset":0,
		"min":[-53.5830078125,
		-34.73111343383789,
		-19.753236770629884],
		"max":[11.773521423339844,
		-9.057244300842286,
		11.907694816589356]
	},
	{
		"count":17664,
		"type":"SCALAR",
		"bufferView":8,
		"componentType":5123,
		"byteOffset":0,
		"min":[0],
		"max":[2945]
	},
	{
		"count":2946,
		"type":"VEC3",
		"bufferView":9,
		"componentType":5126,
		"byteOffset":0,
		"min":[-3.7846269607543947,
		-32.00735855102539,
		-22.45718002319336],
		"max":[44.94344711303711,
		16.720714569091798,
		22.45718002319336]
	}],
	"bufferViews":[{
		"buffer":0,
		"byteOffset":0,
		"byteLength":2880,
		"target":34963
	},
	{
		"buffer":0,
		"byteOffset":2880,
		"byteLength":2904,
		"target":34962
	},
	{
		"buffer":1,
		"byteOffset":0,
		"byteLength":114048,
		"target":34963
	},
	{
		"buffer":1,
		"byteOffset":114048,
		"byteLength":114924,
		"target":34962
	},
	{
		"buffer":2,
		"byteOffset":0,
		"byteLength":246360,
		"target":34963
	},
	{
		"buffer":2,
		"byteOffset":246360,
		"byteLength":248148,
		"target":34962
	},
	{
		"buffer":3,
		"byteOffset":0,
		"byteLength":5712,
		"target":34963
	},
	{
		"buffer":3,
		"byteOffset":5712,
		"byteLength":6672,
		"target":34962
	},
	{
		"buffer":4,
		"byteOffset":0,
		"byteLength":35328,
		"target":34963
	},
	{
		"buffer":4,
		"byteOffset":35328,
		"byteLength":35352,
		"target":34962
	}]
}